<svg xmlns="http://www.w3.org/2000/svg" width="1024" height="1024" viewBox="0 0 1024 1024"><!-- Home-screen icon from development/plans/app-icons (the Field set). Full bleed: the platform rounds the corners. --><defs><linearGradient id="gAfolio" x1="0.25" y1="0" x2="0.75" y2="1"><stop offset="0" stop-color="#fdfcfa"/><stop offset="1" stop-color="#e8e6e1"/></linearGradient><linearGradient id="wAfolio" gradientUnits="userSpaceOnUse" x1="0" y1="230" x2="0" y2="800"><stop offset="0" stop-color="#ffffff"/><stop offset="1" stop-color="#eef0f6"/></linearGradient><radialGradient id="sAfolio" cx="0.5" cy="-0.1" r="0.9"><stop offset="0" stop-color="#fff" stop-opacity="0.22"/><stop offset="1" stop-color="#fff" stop-opacity="0"/></radialGradient><filter id="dAfolio" x="-20%" y="-20%" width="140%" height="140%"><feGaussianBlur in="SourceAlpha" stdDeviation="16" result="b"/><feOffset in="b" dy="14" result="o"/><feFlood flood-color="#8c8a84" flood-opacity="0.2" result="c"/><feComposite in="c" in2="o" operator="in" result="s"/><feMerge><feMergeNode in="s"/><feMergeNode in="SourceGraphic"/></feMerge></filter></defs><g ><rect width="1024" height="1024" fill="url(#gAfolio)"/><rect width="1024" height="1024" fill="url(#sAfolio)"/><g filter="url(#dAfolio)"><g transform="translate(512 512) scale(1) translate(-512 -512)"><g transform="translate(512 726) rotate(-32)"><rect x="-84" y="-458" width="168" height="520" rx="46" fill="#ff8a3d" /><rect x="-60" y="-434" width="120" height="70" rx="22" fill="#ffffff" opacity="0.9"/></g><g transform="translate(512 726) rotate(32)"><rect x="-84" y="-458" width="168" height="520" rx="46" fill="#8b74ff" /><rect x="-60" y="-434" width="120" height="70" rx="22" fill="#ffffff" opacity="0.9"/></g><g transform="translate(512 726) rotate(0)"><rect x="-84" y="-458" width="168" height="520" rx="46" fill="#38bdf8" /><rect x="-60" y="-434" width="120" height="70" rx="22" fill="#ffffff" opacity="0.9"/></g><circle cx="512" cy="690" r="43.2" fill="#111113" /></g></g></g></svg>
